<?xml version="1.0" encoding="utf-8"?>
<!-- Generator: Adobe Illustrator 15.0.0, SVG Export Plug-In . SVG Version: 6.00 Build 0)  -->
<!DOCTYPE svg PUBLIC "-//W3C//DTD SVG 1.1//EN" "http://www.w3.org/Graphics/SVG/1.1/DTD/svg11.dtd">
<svg version="1.1" id="Layer_1" xmlns="http://www.w3.org/2000/svg" xmlns:xlink="http://www.w3.org/1999/xlink" x="0px" y="0px"
	 width="39.624px" height="41.896px" viewBox="0 0 39.624 41.896" enable-background="new 0 0 39.624 41.896" xml:space="preserve">
<g>
	<g>
		<path fill="#D8414C" stroke="#5B0D0D" stroke-width="1.5" stroke-miterlimit="10" d="M9.509,41.146V29.771
			c0-0.368-0.338-0.371-0.73-0.662c-0.311-0.233,0.73,0.294,0.73,0.662V41.146h20.603V29.917c0-0.365,1.044-0.895,0.731-0.661
			c-0.435,0.32-0.731,0.296-0.731,0.661v11.229h8.762V29.327c0-3.907-3.488-9.846-7.789-9.846H8.535c-4.3,0-7.785,5.938-7.785,9.846
			v11.819H9.509z"/>
		<path fill="#E58890" stroke="#5B0D0D" stroke-width="1.5" stroke-miterlimit="10" d="M28.028,16.239
			c0,4.219-3.504,7.672-7.787,7.672h-0.86c-4.301,0-7.787-3.433-7.787-7.672V7.817c0-3.906,3.211-7.067,7.174-7.067h2.086
			c3.962,0,7.174,3.161,7.174,7.067V16.239z"/>
		<path fill="#FFFFFF" stroke="#5B0D0D" stroke-width="1.5" stroke-miterlimit="10" d="M10.099,6.303
			c-1.182,1.773,0.134,7.581,1.509,9.399C13.318,16.374,15.556-1.897,10.099,6.303z"/>
		<path fill="#FFFFFF" stroke="#5B0D0D" stroke-width="1.5" stroke-miterlimit="10" d="M29.522,6.303
			c1.182,1.773-0.135,7.581-1.509,9.399C26.303,16.374,24.065-1.897,29.522,6.303z"/>
	</g>
</g>
</svg>
